<svg width="20" height="20" viewBox="0 0 10 10" fill="none" xmlns="http://www.w3.org/2000/svg">
    <path fillRule="evenodd" clipRule="evenodd" d="M0.720011 0.72C0.860631 0.57955 1.05126 0.50066 1.25001 0.50066C1.44876 0.50066 1.63938 0.57955 1.78001 0.72L5.00001 3.94L8.22001 0.72C8.28871 0.64631 8.37151 0.58721 8.46351 0.54622C8.55551 0.50523 8.65481 0.48319 8.75551 0.48141C8.85621 0.47963 8.95621 0.49816 9.04961 0.53588C9.14301 0.5736 9.22781 0.62974 9.29901 0.70096C9.37031 0.77218 9.42641 0.85702 9.46411 0.9504C9.50181 1.04379 9.52041 1.14382 9.51861 1.24452C9.51681 1.34523 9.49481 1.44454 9.45381 1.53654C9.41281 1.62854 9.35371 1.71134 9.28001 1.78L6.06001 5L9.28001 8.22C9.35371 8.2887 9.41281 8.3715 9.45381 8.4635C9.49481 8.5555 9.51681 8.6548 9.51861 8.7555C9.52041 8.8562 9.50181 8.9562 9.46411 9.0496C9.42641 9.143 9.37031 9.2278 9.29901 9.299C9.22781 9.3703 9.14301 9.4264 9.04961 9.4641C8.95621 9.5018 8.85621 9.5204 8.75551 9.5186C8.65481 9.5168 8.55551 9.4948 8.46351 9.4538C8.37151 9.4128 8.28871 9.3537 8.22001 9.28L5.00001 6.06L1.78001 9.28C1.63783 9.4125 1.44978 9.4846 1.25548 9.4812C1.06118 9.4777 0.875801 9.399 0.738381 9.2616C0.600971 9.1242 0.522261 8.9388 0.518831 8.7445C0.515401 8.5502 0.587531 8.3622 0.720011 8.22L3.94001 5L0.720011 1.78C0.579561 1.63938 0.500671 1.44875 0.500671 1.25C0.500671 1.05125 0.579561 0.86063 0.720011 0.72Z" fill="#000"/>
</svg>