<svg width="343" height="172" viewBox="0 0 343 172" fill="none" xmlns="http://www.w3.org/2000/svg">
    <path d="M26.7558 117.683L59.4088 117.683L34.0701 90.8236L84.7476 29.4315L136.296 90.8236L110.522 117.683L143.958 117.683" stroke="white" stroke-width="10.1156"/>
    <path d="M26.7559 140.425H144.482" stroke="white" stroke-width="10.1156"/>
    <path fill-rule="evenodd" clip-rule="evenodd" d="M208.013 84.3418L255.948 12.4396C257.5 10.111 260.927 10.1258 262.459 12.4676L309.507 84.3701C310.365 85.6814 310.355 87.3788 309.482 88.6801L262.435 158.807C260.897 161.099 257.531 161.114 255.974 158.835L208.039 88.7078C207.14 87.3939 207.13 85.6661 208.013 84.3418ZM256.49 104.343V98.7475C253.508 98.568 250.873 97.9809 248.584 96.9862C245.791 95.7724 243.604 94.0516 242.025 91.8237C240.445 89.5791 239.572 86.9188 239.406 83.8429H247.137C247.287 85.6885 247.886 87.2264 248.933 88.4568C249.997 89.6705 251.352 90.5767 252.998 91.1752C254.094 91.5586 255.257 91.8157 256.49 91.9465V75.0007L254.071 74.3409C249.981 73.2269 246.738 71.5892 244.344 69.4278C241.967 67.2663 240.778 64.4066 240.778 60.8485C240.778 57.9056 241.576 55.3368 243.172 53.1421C244.768 50.9474 246.93 49.2432 249.656 48.0295C251.732 47.093 254.01 46.5129 256.49 46.2892V40.4977H260.58V46.2346C263.348 46.4032 265.834 46.9932 268.037 48.0045C270.697 49.2183 272.792 50.8892 274.322 53.0174C275.851 55.129 276.649 57.5565 276.716 60.2998H269.284C269.018 57.9389 267.921 56.11 265.992 54.8131C264.49 53.7904 262.686 53.1659 260.58 52.9394V68.92L262.725 69.4777C264.354 69.8767 266.025 70.417 267.738 71.0987C269.45 71.7804 271.038 72.6782 272.501 73.7922C273.964 74.9062 275.145 76.2862 276.043 77.9322C276.957 79.5782 277.414 81.5485 277.414 83.8429C277.414 86.7359 276.666 89.3047 275.17 91.5493C273.69 93.7939 271.537 95.5646 268.71 96.8615C266.399 97.928 263.689 98.556 260.58 98.7454V104.343H256.49ZM264.271 91.0256C263.147 91.4775 261.916 91.7797 260.58 91.932V76.1147C262.219 76.5667 263.699 77.0811 265.019 77.6579C266.482 78.2897 267.638 79.0878 268.486 80.0521C269.35 81.0164 269.783 82.2551 269.783 83.7681C269.783 85.4308 269.292 86.8856 268.311 88.1326C267.33 89.3629 265.984 90.3273 264.271 91.0256ZM256.49 52.9808V67.8408C255.881 67.6614 255.257 67.4588 254.619 67.2331C253.539 66.834 252.524 66.3436 251.577 65.7616C250.646 65.1631 249.889 64.4232 249.307 63.542C248.742 62.6608 248.459 61.6133 248.459 60.3996C248.459 58.9531 248.875 57.6645 249.706 56.5339C250.554 55.3867 251.743 54.4889 253.273 53.8404C254.233 53.4227 255.306 53.1361 256.49 52.9808ZM228.012 99.2137L260.201 115.796L292.389 99.2137L260.201 147.009L228.012 99.2137Z" fill="white"/>
</svg>