<svg width="93" height="92" viewBox="0 0 93 92" fill="none" xmlns="http://www.w3.org/2000/svg">
    <path d="M75.9293 72.2208C77.3336 74.2047 76.8649 76.946 74.8809 78.3503L60.7698 88.3522C58.1617 90.196 55.0418 91.1612 51.8419 91.1021L34.2038 90.7758L16.6097 90.4504C14.6633 90.4144 13.1199 88.8129 13.1559 86.8666C13.1559 86.8666 13.2501 81.7754 13.2861 79.8291C13.3221 77.8828 14.9236 76.3394 16.87 76.3754L20.9166 76.4503L25.9272 72.583C28.4604 70.6278 31.5813 69.6076 34.7812 69.6668L43.3913 69.826L45.1507 69.8585L52.1884 69.9887C54.1347 70.0247 55.6781 71.6262 55.6421 73.5725C55.6061 75.5189 54.0046 77.0622 52.0582 77.0262L45.0206 76.8961L43.2612 76.8635C42.2935 76.8456 41.4871 77.6227 41.4692 78.5904C41.4513 79.558 42.2284 80.3644 43.1961 80.3823L56.4577 80.6275L69.7996 71.1724C71.7836 69.7681 74.525 70.2368 75.9293 72.2208ZM34.64 76.7041L34.5411 76.7022C34.5741 76.7029 34.6071 76.7035 34.64 76.7041Z" fill="#163172"/>
    <path d="M15.002 30.1487L20.7874 28.5235C21.334 28.37 21.886 28.7494 21.9385 29.3147L22.4938 35.2983" stroke="#163172" stroke-width="2.72728" stroke-linecap="round"/>
    <path d="M20.2928 30.4761C12.9942 41.0943 13.2357 54.661 19.8422 64.834" stroke="#163172" stroke-width="2.72728" stroke-linecap="round"/>
    <path d="M61.094 17.9765L62.955 23.6904C63.1308 24.2302 62.7743 24.7973 62.2116 24.8729L56.2558 25.673" stroke="#163172" stroke-width="2.72728" stroke-linecap="round"/>
    <path d="M60.9833 23.2764C50.0748 16.4191 36.5294 17.2164 26.6358 24.2345" stroke="#163172" stroke-width="2.72728" stroke-linecap="round"/>
    <path d="M74.2857 64.4979L68.5718 66.3589C68.032 66.5347 67.4649 66.1782 67.3893 65.6155L66.5892 59.6597" stroke="#163172" stroke-width="2.72727" stroke-linecap="round"/>
    <path d="M68.986 64.3873C75.8432 53.4788 75.0459 39.9335 68.0279 30.0398" stroke="#163172" stroke-width="2.72727" stroke-linecap="round"/>
    <rect x="26.7274" y="29.2728" width="36.3637" height="36.3637" rx="18.1818" fill="url(#paint0_linear_363_7486)"/>
    <path fill-rule="evenodd" clip-rule="evenodd" d="M36.0844 47.2326L44.4218 34.7266C44.6918 34.3216 45.2878 34.3241 45.5543 34.7314L53.7373 47.2376C53.8866 47.4656 53.8849 47.7609 53.733 47.9872L45.55 60.1845C45.2826 60.5831 44.6971 60.5857 44.4262 60.1894L36.0888 47.992C35.9326 47.7635 35.9309 47.463 36.0844 47.2326ZM44.5161 50.8842L44.5161 49.9108C43.9975 49.8796 43.5391 49.7775 43.141 49.6045C42.6551 49.3934 42.2749 49.0941 42.0001 48.7066C41.7254 48.3162 41.5736 47.8535 41.5447 47.3185L42.8894 47.3185C42.9154 47.6395 43.0195 47.907 43.2017 48.121C43.3868 48.3321 43.6225 48.4897 43.9088 48.5938C44.0993 48.6605 44.3017 48.7052 44.5161 48.7279L44.5161 45.7805L44.0953 45.6658C43.3839 45.472 42.82 45.1872 42.4035 44.8112C41.99 44.4353 41.7832 43.9379 41.7832 43.319C41.7832 42.8072 41.9221 42.3604 42.1997 41.9786C42.4773 41.5969 42.8532 41.3005 43.3275 41.0894C43.6885 40.9265 44.0847 40.8256 44.5161 40.7867L44.5161 39.7794L45.2275 39.7794L45.2275 40.7772C45.709 40.8065 46.1413 40.9091 46.5245 41.0851C46.9872 41.2962 47.3515 41.5868 47.6176 41.957C47.8836 42.3242 48.0224 42.7464 48.034 43.2236L46.7413 43.2236C46.6951 42.8129 46.5042 42.4948 46.1688 42.2693C45.9076 42.0914 45.5938 41.9828 45.2275 41.9434L45.2275 44.7229L45.6005 44.8199C45.8839 44.8893 46.1745 44.9833 46.4724 45.1019C46.7703 45.2204 47.0464 45.3766 47.3009 45.5703C47.5554 45.7641 47.7607 46.0041 47.9169 46.2904C48.0759 46.5767 48.1555 46.9194 48.1555 47.3185C48.1555 47.8217 48.0253 48.2685 47.7651 48.6589C47.5077 49.0493 47.1332 49.3572 46.6416 49.5828C46.2396 49.7683 45.7683 49.8775 45.2275 49.9105L45.2275 50.8842L44.5161 50.8842ZM45.8695 48.5678C45.6739 48.6464 45.4599 48.6989 45.2275 48.7254L45.2275 45.9743C45.5125 46.0529 45.7699 46.1424 45.9996 46.2427C46.2541 46.3526 46.4551 46.4914 46.6025 46.6591C46.7529 46.8269 46.8281 47.0423 46.8281 47.3055C46.8281 47.5947 46.7428 47.8477 46.5722 48.0646C46.4016 48.2786 46.1673 48.4463 45.8695 48.5678ZM44.5161 41.9506L44.5161 44.5352C44.4101 44.504 44.3017 44.4688 44.1907 44.4295C44.0028 44.3601 43.8263 44.2748 43.6615 44.1736C43.4996 44.0695 43.368 43.9408 43.2668 43.7875C43.1684 43.6342 43.1193 43.452 43.1193 43.2409C43.1193 42.9894 43.1916 42.7652 43.3362 42.5686C43.4837 42.369 43.6904 42.2129 43.9565 42.1001C44.1236 42.0274 44.3101 41.9776 44.5161 41.9506ZM39.5628 49.8193L45.1615 52.7034L50.7601 49.8193L45.1615 58.1324L39.5628 49.8193Z" fill="white"/>
    <defs>
        <linearGradient id="paint0_linear_363_7486" x1="44.9092" y1="29.2728" x2="44.9092" y2="65.6364" gradientUnits="userSpaceOnUse">
            <stop stop-color="#3F9FF5"/>
            <stop offset="1" stop-color="#17DAFB"/>
        </linearGradient>
    </defs>
</svg>