<svg width="80" height="72" viewBox="0 0 80 72" fill="none" xmlns="http://www.w3.org/2000/svg">
    <path fill-rule="evenodd" clip-rule="evenodd" d="M52.5312 55.0171C67.7019 55.0171 80.0002 42.7188 80.0002 27.5481C80.0002 12.3773 67.7019 0.0790405 52.5312 0.0790405C38.731 0.0790405 27.3077 10.2557 25.3563 23.5138C25.9184 23.6965 26.4459 24.0098 26.8892 24.4537L30.5837 28.1527C31.2156 28.7855 32.4552 29.2965 33.3302 29.2965H38.5559C40.6948 29.2965 42.4448 31.0487 42.4448 33.1903V38.4469C42.4448 39.323 42.9552 40.5641 43.5871 41.1969L47.2816 44.8959C48.8128 46.4048 48.8128 48.887 47.233 50.3715L43.9564 53.6522C46.6544 54.538 49.5369 55.0171 52.5312 55.0171Z" fill="#163172"/>
    <path fill-rule="evenodd" clip-rule="evenodd" d="M64.9047 12.7423H56.848C55.9291 11.4703 54.4688 10.6442 52.8197 10.6442C51.1706 10.6442 49.7103 11.4703 48.7913 12.7423H40.7347C39.6206 12.7423 38.7205 13.6798 38.7205 14.8403C38.7205 16.0009 39.6206 16.9384 40.7347 16.9384H47.885C48.2123 18.6235 49.3264 20.02 50.8055 20.6953V40.0174H41.2711C41.4757 40.6545 41.8251 41.2932 42.2225 41.6911L44.7419 44.2136H52.8197H64.9047C66.0188 44.2136 66.9189 43.276 66.9189 42.1155C66.9189 40.955 66.0188 40.0174 64.9047 40.0174H54.8338V20.6953C56.313 20.0266 57.4271 18.63 57.7544 16.9384H64.9047C66.0188 16.9384 66.9189 16.0009 66.9189 14.8403C66.9189 13.6798 66.0188 12.7423 64.9047 12.7423ZM41.0801 37.9109C44.8498 37.7594 47.9346 35.5851 48.5962 32.7462C48.7599 32.025 48.5333 31.2841 48.1745 30.6416L42.1824 19.9413C41.8676 19.384 41.2886 19.0365 40.6654 19.0365C40.0423 19.0365 39.4632 19.3775 39.1485 19.9413L33.6328 29.7908H37.1286L40.6591 23.4819L45.2225 31.6251H40.4877C40.8628 32.2234 41.0801 32.9298 41.0801 33.6846V37.9109ZM69.4618 31.6251H60.3476L64.9047 23.4819L69.4618 31.6251ZM56.9739 32.7462C57.6537 35.6901 60.9456 37.9193 64.9047 37.9193C68.8638 37.9193 72.1557 35.6901 72.8355 32.7462C72.9991 32.025 72.7725 31.2841 72.4138 30.6416L66.4216 19.9413C66.1069 19.384 65.5278 19.0365 64.9047 19.0365C64.2816 19.0365 63.7025 19.3775 63.3878 19.9413L57.3956 30.6416C57.0368 31.2841 56.8102 32.025 56.9739 32.7462Z" fill="white"/>
    <path d="M43.5975 45.3334L40.5196 42.2555C39.9931 41.729 39.5679 40.6962 39.5679 39.9673V35.5934C39.5679 33.8114 38.1099 32.3534 36.3279 32.3534H31.9742C31.2453 32.3534 30.2125 31.9282 29.686 31.4017L26.6081 28.3237C25.3526 27.0683 23.2872 27.0683 22.0317 28.3237L18.9133 31.4017C18.407 31.9282 17.3743 32.3534 16.6251 32.3534H12.2714C10.4894 32.3534 9.03146 33.8114 9.03146 35.5934V39.947C9.03146 40.676 8.60622 41.7087 8.07973 42.2352L5.00179 45.3132C3.74631 46.5686 3.74631 48.6341 5.00179 49.8896L8.07973 52.9675C8.60622 53.494 9.03146 54.5267 9.03146 55.2557V59.6094C9.03146 61.3913 10.4894 62.8493 12.2714 62.8493H16.6251C17.354 62.8493 18.3868 63.2745 18.9133 63.801L21.9912 66.879C23.2467 68.1344 25.3121 68.1344 26.5676 66.879L29.6455 63.801C30.172 63.2745 31.2048 62.8493 31.9338 62.8493H36.2874C38.0694 62.8493 39.5274 61.3913 39.5274 59.6094V55.2557C39.5274 54.5267 39.9526 53.494 40.4791 52.9675L43.557 49.8896C44.8732 48.6543 44.8732 46.5889 43.5975 45.3334ZM16.1998 41.5467C16.1998 40.433 17.111 39.5218 18.2248 39.5218C19.3385 39.5218 20.2497 40.433 20.2497 41.5467C20.2497 42.6605 19.3588 43.5717 18.2248 43.5717C17.111 43.5717 16.1998 42.6605 16.1998 41.5467ZM19.298 54.7697C18.9943 55.0735 18.6095 55.2152 18.2248 55.2152C17.84 55.2152 17.4553 55.0735 17.1515 54.7697C16.5643 54.1825 16.5643 53.2105 17.1515 52.6233L29.3013 40.4735C29.8885 39.8863 30.8605 39.8863 31.4478 40.4735C32.035 41.0607 32.035 42.0327 31.4478 42.62L19.298 54.7697ZM30.3745 55.7214C29.2406 55.7214 28.3293 54.8102 28.3293 53.6965C28.3293 52.5828 29.2406 51.6715 30.3543 51.6715C31.468 51.6715 32.3792 52.5828 32.3792 53.6965C32.3792 54.8102 31.4883 55.7214 30.3745 55.7214Z" fill="url(#paint0_linear_363_7184)"/>
    <defs>
        <linearGradient id="paint0_linear_363_7184" x1="24.3047" y1="27.3821" x2="24.3047" y2="67.8206" gradientUnits="userSpaceOnUse">
            <stop stop-color="#3F9FF5"/>
            <stop offset="1" stop-color="#17DAFB"/>
        </linearGradient>
    </defs>
</svg>