<svg width="79" height="80" viewBox="0 0 79 80" fill="none" xmlns="http://www.w3.org/2000/svg">
    <path d="M59.06 37.74L56.02 34.7C55.5 34.18 55.08 33.16 55.08 32.44V28.12C55.08 26.36 53.64 24.92 51.88 24.92H47.58C46.86 24.92 45.84 24.5 45.32 23.98L42.28 20.94C41.04 19.7 39 19.7 37.76 20.94L34.68 23.98C34.18 24.5 33.16 24.92 32.42 24.92H28.12C26.36 24.92 24.92 26.36 24.92 28.12V32.42C24.92 33.14 24.5 34.16 23.98 34.68L20.94 37.72C19.7 38.96 19.7 41 20.94 42.24L23.98 45.28C24.5 45.8 24.92 46.82 24.92 47.54V51.84C24.92 53.6 26.36 55.04 28.12 55.04H32.42C33.14 55.04 34.16 55.46 34.68 55.98L37.72 59.02C38.96 60.26 41 60.26 42.24 59.02L45.28 55.98C45.8 55.46 46.82 55.04 47.54 55.04H51.84C53.6 55.04 55.04 53.6 55.04 51.84V47.54C55.04 46.82 55.46 45.8 55.98 45.28L59.02 42.24C60.32 41.02 60.32 38.98 59.06 37.74ZM32 34C32 32.9 32.9 32 34 32C35.1 32 36 32.9 36 34C36 35.1 35.12 36 34 36C32.9 36 32 35.1 32 34ZM35.06 47.06C34.76 47.36 34.38 47.5 34 47.5C33.62 47.5 33.24 47.36 32.94 47.06C32.36 46.48 32.36 45.52 32.94 44.94L44.94 32.94C45.52 32.36 46.48 32.36 47.06 32.94C47.64 33.52 47.64 34.48 47.06 35.06L35.06 47.06ZM46 48C44.88 48 43.98 47.1 43.98 46C43.98 44.9 44.88 44 45.98 44C47.08 44 47.98 44.9 47.98 46C47.98 47.1 47.1 48 46 48Z" fill="url(#paint0_linear_363_7263)"/>
    <path d="M2 42L6.23178 36.9219C6.63157 36.4421 7.36843 36.4421 7.76822 36.9219L12 42" stroke="#163172" stroke-width="3" stroke-linecap="round"/>
    <path d="M7 39C7 53.1732 15.6723 65.3209 28 70.4262" stroke="#163172" stroke-width="3" stroke-linecap="round"/>
    <path d="M36.1978 2.24594L41.4451 6.26601C41.9409 6.6458 41.9711 7.38204 41.5081 7.80116L36.6077 12.2375" stroke="#163172" stroke-width="3" stroke-linecap="round"/>
    <path d="M39.3998 7.11914C25.2385 7.7001 13.4564 16.8631 8.86079 29.3897" stroke="#163172" stroke-width="3" stroke-linecap="round"/>
    <path d="M77.1437 36.1978L73.1236 41.4451C72.7438 41.9409 72.0076 41.9711 71.5885 41.5081L67.1521 36.6077" stroke="#163172" stroke-width="3" stroke-linecap="round"/>
    <path d="M72.2705 39.3998C71.6895 25.2385 62.5266 13.4564 50 8.86079" stroke="#163172" stroke-width="3" stroke-linecap="round"/>
    <path d="M44.4049 77.1437L39.1575 73.1236C38.6618 72.7438 38.6316 72.0076 39.0946 71.5885L43.995 67.1521" stroke="#163172" stroke-width="3" stroke-linecap="round"/>
    <path d="M41.2029 72.2705C55.3642 71.6895 67.1462 62.5266 71.7419 50" stroke="#163172" stroke-width="3" stroke-linecap="round"/>
    <defs>
        <linearGradient id="paint0_linear_363_7263" x1="40.005" y1="20.01" x2="40.005" y2="59.95" gradientUnits="userSpaceOnUse">
            <stop stop-color="#3F9FF5"/>
            <stop offset="1" stop-color="#17DAFB"/>
        </linearGradient>
    </defs>
</svg>