<svg width="34" height="33" viewBox="0 0 34 33" fill="none" xmlns="http://www.w3.org/2000/svg">
    <g clip-path="url(#clip0_726_8583)">
        <path d="M10.5 21C16.0417 21 20.5 16.5417 20.5 11C20.5 5.4583 16.0417 1 10.5 1C4.9583 1 0.5 5.4583 0.5 11C0.5 16.5417 4.9583 21 10.5 21Z" fill="#2775CA"/>
        <path d="M13.25 12.5833C13.25 11.125 12.375 10.625 10.625 10.4167C9.375 10.25 9.125 9.91665 9.125 9.33325C9.125 8.74985 9.5417 8.37495 10.375 8.37495C11.125 8.37495 11.5417 8.62495 11.75 9.24995C11.7917 9.37495 11.9167 9.45825 12.0417 9.45825H12.7083C12.875 9.45825 13 9.33325 13 9.16665V9.12495C12.8333 8.20825 12.0833 7.49995 11.125 7.41665V6.41665C11.125 6.24995 11 6.12495 10.7917 6.08325H10.1667C10 6.08325 9.875 6.20825 9.8333 6.41665V7.37495C8.5833 7.54165 7.7917 8.37495 7.7917 9.41665C7.7917 10.7917 8.625 11.3333 10.375 11.5417C11.5417 11.75 11.9167 12 11.9167 12.6667C11.9167 13.3334 11.3333 13.7917 10.5417 13.7917C9.4583 13.7917 9.0833 13.3333 8.9583 12.7083C8.9167 12.5417 8.7917 12.4583 8.6667 12.4583H7.9583C7.7917 12.4583 7.6667 12.5833 7.6667 12.75V12.7917C7.8333 13.8333 8.5 14.5833 9.875 14.7917V15.7917C9.875 15.9583 10 16.0833 10.2083 16.125H10.8333C11 16.125 11.125 16 11.1667 15.7917V14.7917C12.4167 14.5833 13.25 13.7083 13.25 12.5833Z" fill="white"/>
        <path d="M8.375 16.9583C5.125 15.7917 3.4583 12.1667 4.6667 8.95835C5.2917 7.20835 6.6667 5.87505 8.375 5.25005C8.5417 5.16675 8.625 5.04175 8.625 4.83335V4.25005C8.625 4.08335 8.5417 3.95835 8.375 3.91675C8.3333 3.91675 8.25 3.91675 8.2083 3.95835C4.25 5.20835 2.0833 9.41675 3.3333 13.375C4.0833 15.7083 5.875 17.5 8.2083 18.25C8.375 18.3333 8.5417 18.25 8.5833 18.0833C8.625 18.0417 8.625 18 8.625 17.9167V17.3333C8.625 17.2083 8.5 17.0417 8.375 16.9583ZM12.7917 3.95835C12.625 3.87505 12.4583 3.95835 12.4167 4.12505C12.375 4.16675 12.375 4.20835 12.375 4.29175V4.87505C12.375 5.04175 12.5 5.20835 12.625 5.29175C15.875 6.45835 17.5417 10.0833 16.3333 13.2917C15.7083 15.0417 14.3333 16.375 12.625 17C12.4583 17.0833 12.375 17.2083 12.375 17.4167V18C12.375 18.1667 12.4583 18.2917 12.625 18.3333C12.6667 18.3333 12.75 18.3333 12.7917 18.2917C16.75 17.0417 18.9167 12.8333 17.6667 8.87505C16.9167 6.50005 15.0833 4.70835 12.7917 3.95835Z" fill="white"/>
    </g>
    <rect x="9.5" y="9" width="24" height="24" rx="12" fill="url(#paint0_linear_726_8583)"/>
    <path d="M21.1677 11.896C21.3262 11.6595 21.6739 11.6595 21.8323 11.896L27.7829 20.7774C27.8731 20.9121 27.8731 21.088 27.7829 21.2227L21.8323 30.104C21.6739 30.3405 21.3262 30.3405 21.1677 30.104L15.2172 21.2227C15.1269 21.088 15.1269 20.9121 15.2172 20.7774L21.1677 11.896ZM24.902 23.853C25.1303 23.5121 24.7588 23.0895 24.3915 23.2722L21.6782 24.6221C21.566 24.6779 21.4341 24.6779 21.3219 24.6221L18.6085 23.2722C18.2412 23.0895 17.8697 23.5121 18.0981 23.853L21.1677 28.4345C21.3262 28.671 21.6739 28.671 21.8323 28.4345L24.902 23.853ZM21.8705 14.8153C21.8705 14.6257 21.7168 14.472 21.5272 14.472C21.3376 14.472 21.1839 14.6257 21.1839 14.8153V14.9552C21.1839 15.1654 21.0206 15.3369 20.8132 15.371C20.3762 15.4427 20.0073 15.587 19.6963 15.8089C19.1657 16.1744 18.9057 16.6966 18.9057 17.3859C18.9057 18.1495 19.2509 18.7296 19.9615 19.1261C19.9787 19.1357 19.9968 19.1439 20.0153 19.1507L20.9216 19.4829C21.0792 19.5407 21.1839 19.6907 21.1839 19.8585V21.5678C21.1839 21.8092 20.9665 22.0041 20.7447 21.9091C20.6242 21.8574 20.5209 21.791 20.4349 21.7097C20.2534 21.5354 20.1318 21.2649 20.0654 20.9074C20.0273 20.7019 19.8573 20.54 19.6483 20.54H19.2422C19.0099 20.54 18.8241 20.738 18.8616 20.9673C18.967 21.6115 19.2002 22.1062 19.561 22.4512C19.8675 22.7418 20.2855 22.9275 20.8149 23.014C21.0217 23.0477 21.1839 23.219 21.1839 23.4285V23.6327C21.1839 23.8223 21.3376 23.976 21.5272 23.976C21.7168 23.976 21.8705 23.8223 21.8705 23.6327V23.4315C21.8705 23.2208 22.0345 23.0486 22.2429 23.0173C22.712 22.9468 23.1097 22.8034 23.4414 22.587C24.0031 22.211 24.284 21.6575 24.284 20.9159C24.284 20.1535 23.9199 19.5687 23.2021 19.1614C23.1467 19.1243 22.7877 18.9883 22.1324 18.7462C21.9752 18.6882 21.8705 18.5383 21.8705 18.3707V16.803C21.8705 16.5631 22.0863 16.3671 22.306 16.4634C22.3756 16.494 22.4385 16.5299 22.4947 16.5713C22.6741 16.6988 22.8051 16.891 22.8878 17.1518C22.948 17.3416 23.1108 17.4903 23.3099 17.4903H23.6905C23.9329 17.4903 24.1222 17.2753 24.0631 17.0402C23.9289 16.5064 23.6956 16.1046 23.3582 15.8402C23.0694 15.6083 22.6957 15.4486 22.2421 15.3716C22.0345 15.3364 21.8705 15.1649 21.8705 14.9543V14.8153ZM21.8705 19.9519C21.8705 19.8899 21.9295 19.8437 21.985 19.8715C22.7028 20.1222 23.0669 20.4877 23.0669 20.9577C23.0669 21.3024 22.9212 21.5739 22.6299 21.7619C22.536 21.8232 22.4315 21.8738 22.3183 21.9148C22.0893 21.9977 21.8705 21.8051 21.8705 21.5615V19.9519ZM20.7479 16.4437C20.9709 16.3573 21.1839 16.5514 21.1839 16.7905V17.8065C21.1839 18.0871 20.8989 18.284 20.6595 18.1376C20.3017 17.9187 20.1228 17.6681 20.1228 17.3859C20.1228 16.9995 20.258 16.7175 20.5389 16.5504C20.5994 16.5099 20.6693 16.4741 20.7479 16.4437Z" fill="white"/>
    <defs>
        <linearGradient id="paint0_linear_726_8583" x1="21.5" y1="9" x2="21.5" y2="33" gradientUnits="userSpaceOnUse">
            <stop stop-color="#3F9FF5"/>
            <stop offset="1" stop-color="#17DAFB"/>
        </linearGradient>
        <clipPath id="clip0_726_8583">
            <rect width="20" height="20" fill="white" transform="translate(0.5 1)"/>
        </clipPath>
    </defs>
</svg>