<svg width="88" height="80" viewBox="0 0 88 80" fill="none" xmlns="http://www.w3.org/2000/svg">
    <circle cx="63.0589" cy="20.9412" r="16.9412" fill="url(#paint0_linear_363_7367)"/>
    <g clip-path="url(#clip0_363_7367)">
        <path d="M69.0903 21.1397L63.059 24.978L57.0237 21.1397L63.059 10.353L69.0903 21.1397ZM63.059 26.2105L57.0237 22.3723L63.059 31.5294L69.0943 22.3723L63.059 26.2105Z" fill="white"/>
    </g>
    <circle cx="24.9412" cy="20.9412" r="16.9412" fill="#1E56A0"/>
    <path d="M23.4437 13.115V10.3528H26.3182V13.115H23.4437ZM23.4437 31.5293V28.6963H26.3182V31.5293H23.4437ZM25.0863 29.4518C23.7496 29.4518 22.5902 29.2079 21.6078 28.72C20.6416 28.2163 19.8928 27.5081 19.3614 26.5952C18.846 25.6666 18.5884 24.5571 18.5884 23.2665H21.5837C21.5837 24.4626 21.8816 25.3833 22.4774 26.0286C23.0894 26.6582 23.9509 26.973 25.0621 26.973C25.9961 26.973 26.7369 26.7683 27.2844 26.3591C27.8481 25.9499 28.1299 25.3755 28.1299 24.6358C28.1299 24.1006 27.9608 23.6836 27.6226 23.3845C27.3005 23.0697 26.8577 22.8101 26.294 22.6055C25.7465 22.4008 25.1426 22.2199 24.4824 22.0625C23.8221 21.8893 23.1619 21.7005 22.5016 21.4959C21.8413 21.2755 21.2294 20.9922 20.6658 20.646C20.1182 20.2997 19.6754 19.8512 19.3372 19.3003C18.999 18.7337 18.8299 18.0176 18.8299 17.152C18.8299 16.2391 19.0795 15.4286 19.5788 14.7203C20.078 14.0121 20.7785 13.4534 21.6803 13.0442C22.5821 12.6192 23.6369 12.4067 24.8447 12.4067C26.0042 12.4067 27.0509 12.6192 27.9849 13.0442C28.9351 13.4691 29.6919 14.0751 30.2556 14.862C30.8353 15.6332 31.1332 16.5775 31.1493 17.695H28.1057C28.0896 17.0969 27.9286 16.5933 27.6226 16.184C27.3327 15.7591 26.9382 15.4365 26.439 15.2161C25.9559 14.9958 25.4244 14.8856 24.8447 14.8856C24.0234 14.8856 23.339 15.0823 22.7915 15.4758C22.26 15.8535 21.9943 16.3887 21.9943 17.0812C21.9943 17.5691 22.1634 17.9547 22.5016 18.238C22.8398 18.5212 23.2826 18.7573 23.8302 18.9462C24.3938 19.1193 25.0057 19.2846 25.666 19.442C26.3262 19.5994 26.9784 19.7882 27.6226 20.0086C28.2829 20.2132 28.8867 20.5043 29.4343 20.8821C29.9979 21.2441 30.4488 21.7241 30.787 22.3222C31.1252 22.9202 31.2943 23.6836 31.2943 24.6121C31.2943 25.5879 31.0205 26.4378 30.473 27.1618C29.9415 27.8858 29.2088 28.4524 28.2748 28.8616C27.3408 29.2551 26.2779 29.4518 25.0863 29.4518Z" fill="white"/>
    <circle cx="63.0589" cy="59.0589" r="16.9412" fill="#1E56A0"/>
    <path d="M55.2237 62.3076L59.56 62.3076L56.195 58.7407L62.925 50.5879L69.7706 58.7407L66.3478 62.3076L70.7882 62.3076" stroke="white" stroke-width="1.34336"/>
    <path d="M55.2235 65.4114H70.8575" stroke="white" stroke-width="1.34336"/>
    <rect x="8" y="42.1177" width="33.8824" height="33.8824" rx="16.9412" fill="url(#paint1_linear_363_7367)"/>
    <path fill-rule="evenodd" clip-rule="evenodd" d="M16.7184 58.8517L24.4868 47.1991C24.7384 46.8217 25.2938 46.8241 25.5421 47.2036L33.1667 58.8563C33.3058 59.0689 33.3042 59.3439 33.1627 59.5548L25.5381 70.9198C25.2889 71.2912 24.7434 71.2936 24.491 70.9244L16.7225 59.5593C16.5769 59.3464 16.5753 59.0664 16.7184 58.8517ZM24.5746 62.073V61.1661C24.0914 61.137 23.6643 61.0419 23.2934 60.8807C22.8407 60.684 22.4864 60.4051 22.2304 60.044C21.9744 59.6803 21.8329 59.2491 21.806 58.7507H23.0589C23.0832 59.0497 23.1802 59.299 23.3499 59.4984C23.5224 59.6951 23.742 59.8419 24.0088 59.9389C24.1863 60.0011 24.3749 60.0427 24.5746 60.0639V57.3176L24.1826 57.2107C23.5197 57.0302 22.9943 56.7648 22.6063 56.4145C22.2209 56.0642 22.0283 55.6007 22.0283 55.0241C22.0283 54.5472 22.1576 54.1309 22.4163 53.7752C22.675 53.4195 23.0253 53.1433 23.4672 52.9466C23.8035 52.7948 24.1727 52.7008 24.5746 52.6646V51.726H25.2375V52.6557C25.6861 52.6831 26.089 52.7787 26.446 52.9426C26.8771 53.1393 27.2166 53.4101 27.4645 53.755C27.7124 54.0972 27.8417 54.4906 27.8525 54.9352H26.6481C26.605 54.5526 26.4271 54.2562 26.1145 54.046C25.8712 53.8803 25.5788 53.779 25.2375 53.7423V56.3322L25.5851 56.4226C25.8491 56.4872 26.1199 56.5748 26.3975 56.6853C26.675 56.7958 26.9323 56.9413 27.1695 57.1218C27.4066 57.3023 27.5979 57.526 27.7434 57.7927C27.8916 58.0595 27.9657 58.3788 27.9657 58.7507C27.9657 59.2195 27.8444 59.6358 27.6019 59.9996C27.3621 60.3633 27.0132 60.6503 26.5551 60.8605C26.1806 61.0333 25.7414 61.1351 25.2375 61.1658V62.073H24.5746ZM25.8357 59.9147C25.6534 59.9879 25.454 60.0369 25.2375 60.0616V57.4982C25.5031 57.5715 25.7429 57.6548 25.9569 57.7483C26.194 57.8507 26.3813 57.98 26.5187 58.1363C26.6588 58.2926 26.7289 58.4933 26.7289 58.7385C26.7289 59.008 26.6494 59.2438 26.4904 59.4458C26.3315 59.6452 26.1132 59.8015 25.8357 59.9147ZM24.5746 53.749V56.1573C24.4759 56.1282 24.3749 56.0954 24.2715 56.0588C24.0963 55.9941 23.932 55.9146 23.7784 55.8203C23.6275 55.7233 23.5049 55.6034 23.4106 55.4606C23.319 55.3178 23.2732 55.1481 23.2732 54.9514C23.2732 54.7169 23.3405 54.5081 23.4752 54.3249C23.6127 54.1389 23.8053 53.9934 24.0532 53.8884C24.2089 53.8207 24.3827 53.7742 24.5746 53.749ZM19.9592 61.2619L25.1758 63.9493L30.3925 61.2619L25.1758 69.0078L19.9592 61.2619Z" fill="white"/>
    <defs>
        <linearGradient id="paint0_linear_363_7367" x1="63.0589" y1="4" x2="63.0589" y2="37.8824" gradientUnits="userSpaceOnUse">
            <stop stop-color="#4E96FF"/>
            <stop offset="1" stop-color="#59DAFF"/>
        </linearGradient>
        <linearGradient id="paint1_linear_363_7367" x1="24.9412" y1="42.1177" x2="24.9412" y2="76" gradientUnits="userSpaceOnUse">
            <stop stop-color="#3F9FF5"/>
            <stop offset="1" stop-color="#17DAFB"/>
        </linearGradient>
        <clipPath id="clip0_363_7367">
            <rect width="12.7059" height="21.1765" fill="white" transform="translate(56.7059 10.3528)"/>
        </clipPath>
    </defs>
</svg>