<svg width="56" height="52" viewBox="0 0 56 52" fill="none" xmlns="http://www.w3.org/2000/svg">
    <path fill-rule="evenodd" clip-rule="evenodd" d="M37.2392 0.955655C36.8915 0.793883 36.5106 0.70874 36.1298 0.70874C35.7489 0.70874 35.368 0.793883 35.0286 0.955655L19.4299 7.75858C17.6084 8.55041 16.2505 10.398 16.2588 12.6288C16.2678 14.4535 16.4324 16.6052 16.829 18.9283C25.6828 20.0916 32.5175 27.6666 32.5175 36.838C32.5175 38.7459 32.2217 40.5848 31.6735 42.3112C32.3978 42.7491 33.1542 43.1638 33.944 43.5527C35.3266 44.2339 36.9329 44.2339 38.3156 43.5527C52.5812 36.5284 55.9593 21.075 56.0007 12.6288C56.009 10.398 54.6511 8.55041 52.8296 7.75858L37.2392 0.955655Z" fill="#163172"/>
    <rect x="0.000488281" y="22.3867" width="28.9032" height="28.9032" rx="14.4516" fill="url(#paint0_linear_341_6872)"/>
    <path d="M16.6384 28.9351H20.9739C21.5734 28.9351 22.0578 29.4396 22.0578 30.0641C22.0578 30.6886 21.5734 31.1931 20.9739 31.1931H17.1261C16.95 32.1034 16.3505 32.8549 15.5545 33.2148V43.6125H20.9739C21.5734 43.6125 22.0578 44.117 22.0578 44.7415C22.0578 45.366 21.5734 45.8705 20.9739 45.8705H14.4707H7.96743C7.36792 45.8705 6.88356 45.366 6.88356 44.7415C6.88356 44.117 7.36792 43.6125 7.96743 43.6125H13.3868V33.2148C12.5908 32.8514 11.9913 32.0999 11.8152 31.1931H7.96743C7.36792 31.1931 6.88356 30.6886 6.88356 30.0641C6.88356 29.4396 7.36792 28.9351 7.96743 28.9351H12.3029C12.7974 28.2506 13.5832 27.806 14.4707 27.806C15.3581 27.806 16.1439 28.2506 16.6384 28.9351ZM18.5216 39.0964H23.4261L20.9739 34.7143L18.5216 39.0964ZM20.9739 42.4834C18.8434 42.4834 17.0719 41.2839 16.7061 39.6997C16.6181 39.3116 16.74 38.9129 16.9331 38.5671L20.1576 32.8091C20.327 32.5056 20.6386 32.3222 20.9739 32.3222C21.3092 32.3222 21.6208 32.5092 21.7902 32.8091L25.0147 38.5671C25.2078 38.9129 25.3297 39.3116 25.2416 39.6997C24.8758 41.2839 23.1044 42.4834 20.9739 42.4834ZM7.92679 34.7143L5.47453 39.0964H10.3824L7.92679 34.7143ZM3.66243 39.6997C3.57437 39.3116 3.6963 38.9129 3.88937 38.5671L7.11389 32.8091C7.28324 32.5056 7.59485 32.3222 7.93018 32.3222C8.2655 32.3222 8.57711 32.5092 8.74647 32.8091L11.971 38.5671C12.164 38.9129 12.286 39.3116 12.1979 39.6997C11.8287 41.2839 10.0573 42.4834 7.92679 42.4834C5.7963 42.4834 4.02824 41.2839 3.66243 39.6997Z" fill="white"/>
    <path fill-rule="evenodd" clip-rule="evenodd" d="M43.3995 17.2846C43.8227 17.7079 43.8227 18.3942 43.3995 18.8174L34.7285 27.4884C34.3052 27.9117 33.6189 27.9117 33.1957 27.4884L28.8602 23.1529C28.4369 22.7297 28.4369 22.0434 28.8602 21.6201C29.2835 21.1968 29.9697 21.1968 30.393 21.6201L33.9621 25.1892L41.8666 17.2846C42.2899 16.8613 42.9762 16.8613 43.3995 17.2846Z" fill="white"/>
    <defs>
        <linearGradient id="paint0_linear_341_6872" x1="14.4521" y1="22.3867" x2="14.4521" y2="51.2899" gradientUnits="userSpaceOnUse">
            <stop stop-color="#3F9FF5"/>
            <stop offset="1" stop-color="#17DAFB"/>
        </linearGradient>
    </defs>
</svg>