<svg width="60" height="50" viewBox="0 0 60 50" fill="none" xmlns="http://www.w3.org/2000/svg">
    <circle cx="47.4998" cy="37.5002" r="8.75" fill="white"/>
    <path d="M47.4995 24.9998C40.5995 24.9998 34.9995 30.5998 34.9995 37.4998C34.9995 44.3998 40.5995 49.9998 47.4995 49.9998C54.3995 49.9998 59.9995 44.3998 59.9995 37.4998C59.9995 30.5998 54.3995 24.9998 47.4995 24.9998ZM43.412 32.0748C44.4245 32.0748 45.262 32.8998 45.262 33.9248C45.262 34.9373 44.437 35.7748 43.412 35.7748C42.3995 35.7748 41.562 34.9498 41.562 33.9248C41.562 32.8998 42.387 32.0748 43.412 32.0748ZM43.562 42.2498C43.3745 42.4373 43.137 42.5248 42.8995 42.5248C42.662 42.5248 42.4245 42.4373 42.237 42.2498C41.8745 41.8873 41.8745 41.2873 42.237 40.9248L50.4245 32.7373C50.787 32.3748 51.387 32.3748 51.7495 32.7373C52.112 33.0998 52.112 33.6998 51.7495 34.0623L43.562 42.2498ZM51.587 42.9248C50.5745 42.9248 49.737 42.0998 49.737 41.0748C49.737 40.0623 50.562 39.2248 51.587 39.2248C52.5995 39.2248 53.437 40.0498 53.437 41.0748C53.437 42.0998 52.612 42.9248 51.587 42.9248Z" fill="url(#paint0_linear_341_6885)"/>
    <path fill-rule="evenodd" clip-rule="evenodd" d="M4.99951 17.2833V32.4995C4.99951 36.6416 8.35738 39.9995 12.4995 39.9995H32.707C32.5706 39.1864 32.4995 38.351 32.4995 37.4991C32.4995 37.0783 32.5169 36.6615 32.5509 36.2495H12.4995C10.4284 36.2495 8.74951 34.5706 8.74951 32.4995V17.2833L8.27569 17.9461C7.50098 19.017 6.24804 19.017 5.47332 17.9461L4.99951 17.2833ZM14.9995 7.49951V3.79368C14.9995 3.77892 14.9995 3.76419 14.9995 3.74951H41.2495C45.3916 3.74951 48.7495 7.10738 48.7495 11.2495V22.5504C48.3374 22.5164 47.9205 22.4991 47.4995 22.4991C46.6478 22.4991 45.8125 22.5701 44.9995 22.7065V11.2495C44.9995 9.17844 43.3206 7.49951 41.2495 7.49951H14.9995ZM39.0624 13.4366V25.0951C37.364 26.2526 35.9157 27.7497 34.8152 29.4888C34.7324 29.2579 34.6874 29.0088 34.6874 28.7491V13.4366C34.6874 12.2266 35.6649 11.2491 36.8749 11.2491C38.0849 11.2491 39.0624 12.2266 39.0624 13.4366ZM19.3749 24.3741C19.3749 23.1641 18.3974 22.1866 17.1874 22.1866C15.9774 22.1866 14.9999 23.1641 14.9999 24.3741V28.7491C14.9999 29.9591 15.9774 30.9366 17.1874 30.9366C18.3974 30.9366 19.3749 29.9591 19.3749 28.7491V24.3741ZM25.9374 28.7491V17.8116C25.9374 16.6016 24.9599 15.6241 23.7499 15.6241C22.5399 15.6241 21.5624 16.6016 21.5624 17.8116V28.7491C21.5624 29.9591 22.5399 30.9366 23.7499 30.9366C24.9599 30.9366 25.9374 29.9591 25.9374 28.7491ZM32.4999 22.1866C32.4999 20.9766 31.5224 19.9991 30.3124 19.9991C29.1024 19.9991 28.1249 20.9766 28.1249 22.1866V28.7491C28.1249 29.9591 29.1024 30.9366 30.3124 30.9366C31.5224 30.9366 32.4999 29.9591 32.4999 28.7491V22.1866Z" fill="#163172"/>
    <rect x="2.85352" y="2.85352" width="8.56152" height="7.61024" fill="white"/>
    <path d="M9.93815 -0.000244141H3.81988C0.760738 -0.000244141 0 0.817145 0 4.07861V13.1913C0 15.344 1.18157 15.8539 2.61403 14.3162L2.62212 14.3081C3.28574 13.604 4.29736 13.6607 4.87196 14.4295L5.68935 15.5221C6.34488 16.388 7.40506 16.388 8.06059 15.5221L8.87798 14.4295C9.46067 13.6526 10.4723 13.5959 11.1359 14.3081C12.5765 15.8458 13.7499 15.3359 13.7499 13.1832V4.07861C13.758 0.817145 12.9973 -0.000244141 9.93815 -0.000244141ZM9.10458 7.08109H4.65345C4.32164 7.08109 4.04648 6.80593 4.04648 6.47412C4.04648 6.14231 4.32164 5.86715 4.65345 5.86715H9.10458C9.43639 5.86715 9.71155 6.14231 9.71155 6.47412C9.71155 6.80593 9.43639 7.08109 9.10458 7.08109Z" fill="url(#paint1_linear_341_6885)"/>
    <defs>
        <linearGradient id="paint0_linear_341_6885" x1="47.4995" y1="24.9998" x2="47.4995" y2="49.9998" gradientUnits="userSpaceOnUse">
            <stop stop-color="#3F9FF5"/>
            <stop offset="1" stop-color="#17DAFB"/>
        </linearGradient>
        <linearGradient id="paint1_linear_341_6885" x1="6.875" y1="-0.000244141" x2="6.875" y2="16.1715" gradientUnits="userSpaceOnUse">
            <stop stop-color="#3F9FF5"/>
            <stop offset="1" stop-color="#17DAFB"/>
        </linearGradient>
    </defs>
</svg>