<?xml version="1.0" standalone="no"?><!DOCTYPE svg PUBLIC "-//W3C//DTD SVG 1.1//EN" "http://www.w3.org/Graphics/SVG/1.1/DTD/svg11.dtd"><svg class="icon" width="200px" height="200.00px" viewBox="0 0 1024 1024" version="1.1" xmlns="http://www.w3.org/2000/svg"><path fill="#849FC3" d="M921.6 529.066667V409.6c61.44-47.786667 68.266667-95.573333 68.266667-119.466667v-10.24c0-3.413333-3.413333-6.826667-3.413334-10.24 0-3.413333-3.413333-3.413333-3.413333-6.826666C952.32 204.8 856.746667 102.4 703.146667 68.266667c-10.24-3.413333-17.066667 3.413333-20.48 13.653333-3.413333 10.24 3.413333 17.066667 13.653333 20.48 64.853333 13.653333 119.466667 40.96 157.013333 71.68v6.826667c-3.413333 3.413333-6.826667 6.826667-6.826666 10.24-3.413333 3.413333-3.413333 6.826667-6.826667 10.24-3.413333 3.413333-3.413333 10.24-6.826667 13.653333 0 3.413333-3.413333 6.826667-3.413333 10.24-3.413333 6.826667-3.413333 10.24-3.413333 17.066667 0 3.413333-3.413333 6.826667-3.413334 6.826666-3.413333 3.413333-3.413333 13.653333-3.413333 20.48 0 30.72 13.653333 78.506667 68.266667 129.706667v129.706667c0 23.893333 3.413333 58.026667 10.24 95.573333 10.24 81.92 27.306667 197.973333-10.24 242.346667-10.24 13.653333-27.306667 20.48-51.2 20.48-34.133333 0-58.026667-6.826667-71.68-23.893334-27.306667-30.72-23.893333-95.573333-17.066667-163.84 3.413333-27.306667 3.413333-58.026667 3.413333-85.333333 0-64.853333 0-262.826667-136.533333-273.066667V102.4c0-58.026667-44.373333-102.4-102.4-102.4H170.666667C112.64 0 68.266667 44.373333 68.266667 102.4v791.893333c-20.48 10.24-34.133333 30.72-34.133334 54.613334v61.44c0 6.826667 6.826667 13.653333 17.066667 13.653333h614.4c10.24 0 17.066667-6.826667 17.066667-17.066667v-61.44c0-34.133333-27.306667-61.44-61.44-61.44H614.4V375.466667c68.266667 6.826667 102.4 81.92 102.4 238.933333 0 27.306667-3.413333 54.613333-3.413333 81.92-6.826667 75.093333-10.24 146.773333 27.306666 191.146667 20.48 23.893333 51.2 34.133333 95.573334 34.133333 34.133333 0 58.026667-10.24 75.093333-30.72 47.786667-54.613333 30.72-174.08 17.066667-269.653333-3.413333-37.546667-6.826667-68.266667-6.826667-92.16zM136.533333 85.333333c0-10.24 6.826667-17.066667 17.066667-17.066666h375.466667c10.24 0 17.066667 6.826667 17.066666 17.066666v273.066667c0 10.24-6.826667 17.066667-17.066666 17.066667h-375.466667c-10.24 0-17.066667-6.826667-17.066667-17.066667v-273.066667z"  /></svg>