<svg width="15" height="22" viewBox="0 0 15 22" fill="none" xmlns="http://www.w3.org/2000/svg">
    <path d="M7.34577 0.156275C7.41931 0.046527 7.5807 0.0465271 7.65423 0.156275L14.7541 10.7531C14.796 10.8156 14.796 10.8972 14.7541 10.9597L7.65423 21.5566C7.5807 21.6663 7.41931 21.6663 7.34577 21.5566L0.245914 10.9597C0.204026 10.8972 0.204025 10.8156 0.245914 10.7531L7.34577 0.156275ZM11.9392 13.2602C12.0452 13.102 11.8728 12.9058 11.7023 12.9907L7.58269 15.0402C7.53061 15.0661 7.46939 15.0661 7.41731 15.0402L3.2977 12.9906C3.12723 12.9058 2.95481 13.102 3.06079 13.2602L7.34578 19.6557C7.41931 19.7654 7.5807 19.7654 7.65423 19.6557L11.9392 13.2602ZM7.92184 3.60943C7.92184 3.50691 7.83872 3.42379 7.73619 3.42379H7.32573C7.22321 3.42379 7.14009 3.50691 7.14009 3.60943V4.22564C7.14009 4.32319 7.06446 4.40367 6.96745 4.41387C6.35908 4.47784 5.85808 4.65214 5.4463 4.94587C4.84223 5.36206 4.54611 5.95662 4.54611 6.74145C4.54611 7.6171 4.9449 8.28079 5.76583 8.73253C5.77383 8.73694 5.78226 8.74075 5.79084 8.7439L7.01835 9.19397C7.09148 9.22078 7.14009 9.29038 7.14009 9.36827V11.8099C7.14009 11.9219 7.0413 12.0093 6.93207 11.9846C6.66377 11.9238 6.44883 11.8171 6.28728 11.6644C6.04065 11.4276 5.8911 11.0348 5.82983 10.5038C5.81871 10.4074 5.73855 10.3326 5.64153 10.3326H4.63917C4.53133 10.3326 4.44587 10.4243 4.45734 10.5316C4.55097 11.4069 4.8293 12.066 5.29232 12.5087C5.68788 12.8837 6.24652 13.1053 6.96824 13.1829C7.06491 13.1933 7.14009 13.2736 7.14009 13.3708V14.0592C7.14009 14.1617 7.22321 14.2448 7.32573 14.2448H7.73619C7.83872 14.2448 7.92184 14.1617 7.92184 14.0592V13.3722C7.92184 13.2744 7.99783 13.1938 8.09516 13.1842C8.73969 13.121 9.27504 12.9474 9.71038 12.6633C10.35 12.2352 10.6698 11.605 10.6698 10.7607C10.6698 9.89262 10.2552 9.22671 9.43795 8.76296C9.37003 8.7175 8.90179 8.5417 8.04358 8.22517C7.97062 8.19826 7.92184 8.12862 7.92184 8.05085V5.77356C7.92184 5.66223 8.01952 5.5749 8.12824 5.59887C8.33015 5.64339 8.49825 5.71508 8.63252 5.81393C8.88559 5.9939 9.05418 6.28696 9.13828 6.70151C9.15665 6.79209 9.2342 6.86036 9.32662 6.86036H10.3031C10.4156 6.86036 10.5026 6.76087 10.4828 6.65011C10.3472 5.88988 10.0611 5.33063 9.61562 4.98154C9.23528 4.67607 8.72532 4.4807 8.0949 4.4138C7.99773 4.40348 7.92184 4.32296 7.92184 4.22524V3.60943ZM7.92184 9.66302C7.92184 9.59243 7.98904 9.53989 8.05213 9.57156V9.57156C8.86941 9.85695 9.28397 10.2731 9.28397 10.8082C9.28397 11.2007 9.11815 11.5098 8.7865 11.7239C8.60104 11.8449 8.37928 11.9295 8.13259 11.9833C8.02218 12.0074 7.92184 11.92 7.92184 11.807V9.66302ZM6.93429 5.58492C7.04303 5.56267 7.14009 5.64972 7.14009 5.76071V7.61289C7.14009 7.74312 7.00917 7.83282 6.89053 7.77912C6.25147 7.48984 5.93194 7.14395 5.93194 6.74145C5.93194 6.30147 6.08592 5.98041 6.40572 5.79015C6.54193 5.69899 6.71989 5.62879 6.93429 5.58492Z" fill="#A3A3A3"/>
</svg>