<svg width="55" height="55" viewBox="0 0 55 55" fill="none" xmlns="http://www.w3.org/2000/svg">
    <path fill-rule="evenodd" clip-rule="evenodd" d="M28.1875 27.4427L39.875 21.0903V30.025C38.9864 29.8447 38.0668 29.75 37.125 29.75C33.7129 29.75 30.591 30.9929 28.1875 33.0506V27.4427ZM26.8125 34.405V27.4414L15.125 20.9486V33.3319C15.125 33.8406 15.3959 34.3054 15.8317 34.5515C17.3911 35.4322 21.2139 37.5908 24.0614 39.1979C24.6498 37.4102 25.5949 35.7845 26.8125 34.405ZM27.5 26.2506L15.7039 19.7015C15.7039 19.7015 24.6936 14.6305 26.8317 13.426C27.0394 13.3091 27.269 13.25 27.5 13.25C27.7296 13.25 27.9606 13.3091 28.1683 13.426C30.3064 14.6305 39.424 19.7703 39.424 19.7703L27.5 26.2506Z" fill="#163172"/>
    <path d="M1.375 28.375L4.28435 24.8838C4.55921 24.554 5.06579 24.554 5.34065 24.8838L8.25 28.375" stroke="#163172" stroke-width="2.0625" stroke-linecap="round"/>
    <path d="M4.8125 26.3125C4.8125 36.0566 10.7747 44.4082 19.25 47.918" stroke="#163172" stroke-width="2.0625" stroke-linecap="round"/>
    <path d="M24.886 1.04408L28.4936 3.80788C28.8344 4.06899 28.8552 4.57515 28.5369 4.8633L25.1678 7.91331" stroke="#163172" stroke-width="2.0625" stroke-linecap="round"/>
    <path d="M27.0874 4.39441C17.3515 4.79382 9.25135 11.0934 6.09185 19.7054" stroke="#163172" stroke-width="2.0625" stroke-linecap="round"/>
    <path d="M53.0362 24.386L50.2724 27.9936C50.0113 28.3344 49.5052 28.3552 49.217 28.0369L46.167 24.6678" stroke="#163172" stroke-width="2.0625" stroke-linecap="round"/>
    <path d="M49.686 26.5874C49.2866 16.8515 42.9871 8.75135 34.3751 5.59185" stroke="#163172" stroke-width="2.0625" stroke-linecap="round"/>
    <circle cx="37.125" cy="43.5" r="11" fill="url(#paint0_linear_339_6714)"/>
    <g clip-path="url(#clip0_339_6714)">
        <path d="M41.041 43.6289L37.1248 46.1211L33.2061 43.6289L37.1248 36.625L41.041 43.6289ZM37.1248 46.9214L33.2061 44.4292L37.1248 50.375L41.0436 44.4292L37.1248 46.9214Z" fill="white"/>
    </g>
    <defs>
        <linearGradient id="paint0_linear_339_6714" x1="37.125" y1="32.5" x2="37.125" y2="54.5" gradientUnits="userSpaceOnUse">
            <stop stop-color="#4E96FF"/>
            <stop offset="1" stop-color="#59DAFF"/>
        </linearGradient>
        <clipPath id="clip0_339_6714">
            <rect width="8.25" height="13.75" fill="white" transform="translate(33 36.625)"/>
        </clipPath>
    </defs>
</svg>
