<svg width="86" height="86" viewBox="0 0 86 86" fill="none" xmlns="http://www.w3.org/2000/svg"><rect width="86" height="86" rx="43" fill="#4A6EEE"></rect><g clip-path="url(#clip0_3659_11533)"><path d="M43.1064 14L42.7109 15.3441V54.3475L43.1064 54.7423L61.2113 44.0405L43.1064 14Z" fill="white" fill-opacity="0.6"></path><path d="M43.1049 14L25 44.0405L43.1049 54.7424V35.8113V14Z" fill="white"></path><path d="M43.1057 58.1703L42.8828 58.4419V72.3358L43.1057 72.9868L61.2213 47.4739L43.1057 58.1703Z" fill="white" fill-opacity="0.6"></path><path d="M43.1049 72.9865V58.17L25 47.4736L43.1049 72.9865Z" fill="white"></path><path d="M43.1016 54.7423L61.2062 44.0407L43.1016 35.8115V54.7423Z" fill="#4A6EEE" fill-opacity="0.3"></path><path d="M25 44.0407L43.1047 54.7423V35.8115L25 44.0407Z" fill="#4A6EEE" fill-opacity="0.3"></path></g><defs><clipPath id="clip0_3659_11533"><rect width="36.2206" height="59" fill="white" transform="translate(25 14)"></rect></clipPath></defs></svg>